<svg width="58" height="40" viewBox="0 0 58 40" fill="none" xmlns="http://www.w3.org/2000/svg">
<path d="M58 18.9087V18.9204V19.6313V19.6457V23.563H45.1677V36.1717H38.5981V26.6021C34.3617 37.0803 25.621 40.1052 19.807 39.9972L19.7769 39.9967L19.7769 39.9666L19.7769 31.4282L19.7769 31.3975H19.8076C22.1639 31.3975 24.3604 30.3989 26.0908 28.9031C27.7836 27.4399 29.0284 25.5023 29.5401 23.563H19.8101V19.6457H57.4883V18.9087H19.8101V16.6986H58V18.9087Z" fill="#F97200"/>
<path d="M9.25763 19.6454C9.16521 27.0622 14.3623 31.154 19.0526 31.3954V39.9282C7.41358 39.4055 -0.375633 29.7092 0.013979 19.6454H9.25763Z" fill="#F97200"/>
<path d="M54.4798 24.1711C57.1622 24.1711 57.9795 27.1091 57.9795 27.6599V36.1565H52.3308V24.1711C52.4613 24.1711 52.9424 24.1711 54.4798 24.1711Z" fill="#F97200"/>
<path d="M48.0593 24.1695C50.7417 24.1695 51.559 27.1075 51.559 27.6584V36.155H45.9103V24.1695C46.0408 24.1695 46.5219 24.1695 48.0593 24.1695Z" fill="#F97200"/>
<path d="M19.0526 8.62201C12.0753 9.69813 9.83804 14.8615 9.29025 18.9087C7.21666 18.8873 3.53525 18.9022 1.49078 18.9087H0.0190755C0.285017 8.98099 8.91375 0.194337 19.0526 0.0325551V8.62201Z" fill="#F97200"/>
<path d="M19.7894 0C29.695 0.054356 35.8852 6.6855 38.1477 12.6773L29.5519 16.0539C27.6867 11.0003 23.7873 8.68818 19.7894 8.59749V0Z" fill="#F97200"/>
</svg>
